<svg xmlns="http://www.w3.org/2000/svg" viewBox="0 0 1000 1000">
  <!-- Base silver color with gradient for depth -->
  <defs>
    <radialGradient id="silverGradient" cx="50%" cy="50%" r="70%" fx="50%" fy="50%">
      <stop offset="0%" stop-color="#C8C8D0" />
      <stop offset="60%" stop-color="#B0B0B8" />
      <stop offset="100%" stop-color="#989898" />
    </radialGradient>
    
    <!-- Subtle metallic pattern -->
    <pattern id="subtlePattern" x="0" y="0" width="100" height="100" patternUnits="userSpaceOnUse">
      <rect width="100" height="100" fill="url(#silverGradient)" />
      <line x1="0" y1="0" x2="100" y2="100" stroke="#D0D0D8" stroke-width="0.3" opacity="0.2" />
      <line x1="100" y1="0" x2="0" y2="100" stroke="#D0D0D8" stroke-width="0.3" opacity="0.2" />
    </pattern>
  </defs>
  
  <!-- Base silver floor -->
  <rect width="100%" height="100%" fill="url(#subtlePattern)" />
  
  <!-- Subtle star-like reflections -->
  <g fill="#FFFFFF">
    <!-- Very small, subtle reflections -->
    <circle cx="137" cy="82" r="0.4" opacity="0.15"/>
    <circle cx="328" cy="143" r="0.3" opacity="0.12"/>
    <circle cx="563" cy="79" r="0.5" opacity="0.15"/>
    <circle cx="782" cy="164" r="0.4" opacity="0.13"/>
    <circle cx="923" cy="83" r="0.3" opacity="0.15"/>
    
    <circle cx="78" cy="227" r="0.4" opacity="0.12"/>
    <circle cx="267" cy="198" r="0.5" opacity="0.15"/>
    <circle cx="492" cy="213" r="0.3" opacity="0.13"/>
    <circle cx="718" cy="247" r="0.4" opacity="0.14"/>
    <circle cx="844" cy="182" r="0.5" opacity="0.12"/>
    
    <circle cx="156" cy="376" r="0.3" opacity="0.15"/>
    <circle cx="321" cy="318" r="0.4" opacity="0.13"/>
    <circle cx="478" cy="345" r="0.5" opacity="0.12"/>
    <circle cx="687" cy="392" r="0.3" opacity="0.14"/>
    <circle cx="892" cy="367" r="0.4" opacity="0.15"/>
    
    <circle cx="76" cy="453" r="0.5" opacity="0.13"/>
    <circle cx="193" cy="487" r="0.3" opacity="0.15"/>
    <circle cx="432" cy="456" r="0.4" opacity="0.12"/>
    <circle cx="673" cy="478" r="0.5" opacity="0.14"/>
    <circle cx="857" cy="432" r="0.3" opacity="0.13"/>
    
    <circle cx="123" cy="569" r="0.4" opacity="0.15"/>
    <circle cx="342" cy="536" r="0.5" opacity="0.12"/>
    <circle cx="498" cy="587" r="0.3" opacity="0.14"/>
    <circle cx="713" cy="546" r="0.4" opacity="0.13"/>
    <circle cx="913" cy="578" r="0.5" opacity="0.15"/>
    
    <circle cx="76" cy="643" r="0.3" opacity="0.12"/>
    <circle cx="245" cy="687" r="0.4" opacity="0.14"/>
    <circle cx="467" cy="652" r="0.5" opacity="0.13"/>
    <circle cx="654" cy="692" r="0.3" opacity="0.15"/>
    <circle cx="823" cy="673" r="0.4" opacity="0.12"/>
    
    <circle cx="132" cy="782" r="0.5" opacity="0.14"/>
    <circle cx="287" cy="743" r="0.3" opacity="0.13"/>
    <circle cx="487" cy="764" r="0.4" opacity="0.15"/>
    <circle cx="678" cy="798" r="0.5" opacity="0.12"/>
    <circle cx="879" cy="752" r="0.3" opacity="0.14"/>
    
    <circle cx="97" cy="867" r="0.4" opacity="0.13"/>
    <circle cx="268" cy="876" r="0.5" opacity="0.15"/>
    <circle cx="453" cy="843" r="0.3" opacity="0.12"/>
    <circle cx="632" cy="879" r="0.4" opacity="0.14"/>
    <circle cx="836" cy="857" r="0.5" opacity="0.13"/>
    
    <circle cx="156" cy="923" r="0.3" opacity="0.15"/>
    <circle cx="345" cy="942" r="0.4" opacity="0.12"/>
    <circle cx="564" cy="927" r="0.5" opacity="0.14"/>
    <circle cx="754" cy="937" r="0.3" opacity="0.13"/>
    <circle cx="897" cy="918" r="0.4" opacity="0.15"/>
  </g>
  
  <!-- A few slightly larger reflections, very subtle -->
  <g fill="#FFFFFF">
    <circle cx="214" cy="136" r="0.7" opacity="0.08"/>
    <circle cx="467" cy="87" r="0.8" opacity="0.07"/>
    <circle cx="736" cy="156" r="0.6" opacity="0.08"/>
    
    <circle cx="124" cy="278" r="0.8" opacity="0.07"/>
    <circle cx="343" cy="232" r="0.7" opacity="0.08"/>
    <circle cx="623" cy="265" r="0.6" opacity="0.07"/>
    
    <circle cx="236" cy="412" r="0.7" opacity="0.08"/>
    <circle cx="456" cy="378" r="0.8" opacity="0.07"/>
    <circle cx="732" cy="423" r="0.6" opacity="0.08"/>
    
    <circle cx="143" cy="534" r="0.8" opacity="0.07"/>
    <circle cx="387" cy="498" r="0.7" opacity="0.08"/>
    <circle cx="687" cy="543" r="0.6" opacity="0.07"/>
    
    <circle cx="193" cy="657" r="0.7" opacity="0.08"/>
    <circle cx="432" cy="624" r="0.8" opacity="0.07"/>
    <circle cx="764" cy="678" r="0.6" opacity="0.08"/>
    
    <circle cx="134" cy="784" r="0.8" opacity="0.07"/>
    <circle cx="378" cy="753" r="0.7" opacity="0.08"/>
    <circle cx="654" cy="792" r="0.6" opacity="0.07"/>
    
    <circle cx="243" cy="867" r="0.7" opacity="0.08"/>
    <circle cx="532" cy="832" r="0.8" opacity="0.07"/>
    <circle cx="786" cy="873" r="0.6" opacity="0.08"/>
    
    <circle cx="168" cy="943" r="0.8" opacity="0.07"/>
    <circle cx="423" cy="921" r="0.7" opacity="0.08"/>
    <circle cx="723" cy="956" r="0.6" opacity="0.07"/>
  </g>
  
  <!-- Very subtle metallic reflections, bluish tint -->
  <g fill="#A4B8FF">
    <circle cx="187" cy="54" r="0.6" opacity="0.04"/>
    <circle cx="396" cy="123" r="0.5" opacity="0.05"/>
    <circle cx="634" cy="89" r="0.6" opacity="0.04"/>
    
    <circle cx="143" cy="243" r="0.5" opacity="0.05"/>
    <circle cx="423" cy="187" r="0.6" opacity="0.04"/>
    <circle cx="657" cy="235" r="0.5" opacity="0.05"/>
    
    <circle cx="176" cy="387" r="0.6" opacity="0.04"/>
    <circle cx="432" cy="356" r="0.5" opacity="0.05"/>
    <circle cx="698" cy="378" r="0.6" opacity="0.04"/>
    
    <circle cx="156" cy="523" r="0.5" opacity="0.05"/>
    <circle cx="453" cy="487" r="0.6" opacity="0.04"/>
    <circle cx="723" cy="534" r="0.5" opacity="0.05"/>
    
    <circle cx="189" cy="634" r="0.6" opacity="0.04"/>
    <circle cx="476" cy="612" r="0.5" opacity="0.05"/>
    <circle cx="687" cy="643" r="0.6" opacity="0.04"/>
    
    <circle cx="143" cy="756" r="0.5" opacity="0.05"/>
    <circle cx="423" cy="734" r="0.6" opacity="0.04"/>
    <circle cx="678" cy="779" r="0.5" opacity="0.05"/>
    
    <circle cx="192" cy="843" r="0.6" opacity="0.04"/>
    <circle cx="453" cy="812" r="0.5" opacity="0.05"/>
    <circle cx="743" cy="845" r="0.6" opacity="0.04"/>
    
    <circle cx="132" cy="934" r="0.5" opacity="0.05"/>
    <circle cx="467" cy="913" r="0.6" opacity="0.04"/>
    <circle cx="754" cy="937" r="0.5" opacity="0.05"/>
  </g>
  
  <!-- Subtle metallic texture overlay -->
  <rect width="100%" height="100%" fill="url(#silverGradient)" opacity="0.03"/>
  
  <!-- Fine grain texture -->
  <filter id="noise" x="0%" y="0%" width="100%" height="100%">
    <feTurbulence type="fractalNoise" baseFrequency="0.7" numOctaves="3" stitchTiles="stitch" result="noise"/>
    <feColorMatrix type="matrix" values="1 0 0 0 0, 0 1 0 0 0, 0 0 1 0 0, 0 0 0 0.03 0"/>
  </filter>
  <rect width="100%" height="100%" filter="url(#noise)"/>
</svg>