<svg xmlns="http://www.w3.org/2000/svg" viewBox="0 0 1000 1000">
  <!-- Deep space background -->
  <rect width="100%" height="100%" fill="#000010"/>
  
  <!-- Tiny background stars - completely random placement -->
  <g fill="#FFFFFF">
    <!-- Randomly placed tiny stars - first cluster -->
    <circle cx="37" cy="42" r="0.8" opacity="0.6"/>
    <circle cx="118" cy="83" r="0.7" opacity="0.7"/>
    <circle cx="263" cy="19" r="0.9" opacity="0.5"/>
    <circle cx="356" cy="62" r="0.7" opacity="0.6"/>
    <circle cx="429" cy="38" r="0.8" opacity="0.7"/>
    <circle cx="537" cy="79" r="0.7" opacity="0.5"/>
    <circle cx="619" cy="34" r="0.9" opacity="0.6"/>
    <circle cx="728" cy="91" r="0.8" opacity="0.7"/>
    <circle cx="847" cy="27" r="0.7" opacity="0.5"/>
    <circle cx="903" cy="73" r="0.9" opacity="0.6"/>
    
    <!-- Randomly placed tiny stars - second cluster -->
    <circle cx="58" cy="132" r="0.7" opacity="0.5"/>
    <circle cx="162" cy="184" r="0.9" opacity="0.6"/>
    <circle cx="237" cy="159" r="0.8" opacity="0.7"/>
    <circle cx="319" cy="121" r="0.7" opacity="0.5"/>
    <circle cx="421" cy="195" r="0.9" opacity="0.6"/>
    <circle cx="514" cy="147" r="0.8" opacity="0.7"/>
    <circle cx="632" cy="176" r="0.7" opacity="0.5"/>
    <circle cx="741" cy="113" r="0.9" opacity="0.6"/>
    <circle cx="829" cy="189" r="0.8" opacity="0.7"/>
    <circle cx="934" cy="143" r="0.7" opacity="0.5"/>
    
    <!-- More randomly distributed tiny stars throughout -->
    <circle cx="23" cy="267" r="0.9" opacity="0.6"/>
    <circle cx="89" cy="342" r="0.8" opacity="0.7"/>
    <circle cx="142" cy="298" r="0.7" opacity="0.5"/>
    <circle cx="236" cy="376" r="0.9" opacity="0.6"/>
    <circle cx="319" cy="287" r="0.8" opacity="0.7"/>
    <circle cx="398" cy="354" r="0.7" opacity="0.5"/>
    <circle cx="467" cy="301" r="0.9" opacity="0.6"/>
    <circle cx="587" cy="289" r="0.8" opacity="0.7"/>
    <circle cx="664" cy="352" r="0.7" opacity="0.5"/>
    <circle cx="759" cy="276" r="0.9" opacity="0.6"/>
    <circle cx="832" cy="328" r="0.8" opacity="0.7"/>
    <circle cx="947" cy="292" r="0.7" opacity="0.5"/>
    
    <!-- Additional scattered tiny stars -->
    <circle cx="46" cy="437" r="0.8" opacity="0.6"/>
    <circle cx="129" cy="498" r="0.7" opacity="0.5"/>
    <circle cx="218" cy="452" r="0.9" opacity="0.7"/>
    <circle cx="319" cy="489" r="0.8" opacity="0.6"/>
    <circle cx="423" cy="431" r="0.7" opacity="0.5"/>
    <circle cx="526" cy="486" r="0.9" opacity="0.7"/>
    <circle cx="647" cy="439" r="0.8" opacity="0.6"/>
    <circle cx="738" cy="482" r="0.7" opacity="0.5"/>
    <circle cx="856" cy="427" r="0.9" opacity="0.7"/>
    <circle cx="923" cy="493" r="0.8" opacity="0.6"/>
    
    <!-- More random tiny stars -->
    <circle cx="37" cy="567" r="0.7" opacity="0.5"/>
    <circle cx="146" cy="532" r="0.9" opacity="0.7"/>
    <circle cx="237" cy="573" r="0.8" opacity="0.6"/>
    <circle cx="319" cy="524" r="0.7" opacity="0.5"/>
    <circle cx="428" cy="561" r="0.9" opacity="0.7"/>
    <circle cx="543" cy="519" r="0.8" opacity="0.6"/>
    <circle cx="619" cy="578" r="0.7" opacity="0.5"/>
    <circle cx="743" cy="534" r="0.9" opacity="0.7"/>
    <circle cx="821" cy="568" r="0.8" opacity="0.6"/>
    <circle cx="937" cy="527" r="0.7" opacity="0.5"/>
    
    <!-- Even more scattered tiny stars -->
    <circle cx="52" cy="637" r="0.9" opacity="0.7"/>
    <circle cx="148" cy="683" r="0.8" opacity="0.6"/>
    <circle cx="253" cy="627" r="0.7" opacity="0.5"/>
    <circle cx="349" cy="678" r="0.9" opacity="0.7"/>
    <circle cx="421" cy="642" r="0.8" opacity="0.6"/>
    <circle cx="537" cy="676" r="0.7" opacity="0.5"/>
    <circle cx="643" cy="629" r="0.9" opacity="0.7"/>
    <circle cx="728" cy="671" r="0.8" opacity="0.6"/>
    <circle cx="839" cy="634" r="0.7" opacity="0.5"/>
    <circle cx="923" cy="687" r="0.9" opacity="0.7"/>
    
    <!-- Even more random tiny stars -->
    <circle cx="42" cy="743" r="0.8" opacity="0.6"/>
    <circle cx="136" cy="727" r="0.7" opacity="0.5"/>
    <circle cx="247" cy="782" r="0.9" opacity="0.7"/>
    <circle cx="329" cy="736" r="0.8" opacity="0.6"/>
    <circle cx="428" cy="759" r="0.7" opacity="0.5"/>
    <circle cx="546" cy="723" r="0.9" opacity="0.7"/>
    <circle cx="632" cy="768" r="0.8" opacity="0.6"/>
    <circle cx="739" cy="729" r="0.7" opacity="0.5"/>
    <circle cx="834" cy="786" r="0.9" opacity="0.7"/>
    <circle cx="946" cy="743" r="0.8" opacity="0.6"/>
    
    <!-- Final clusters of tiny stars -->
    <circle cx="37" cy="865" r="0.7" opacity="0.5"/>
    <circle cx="142" cy="819" r="0.9" opacity="0.7"/>
    <circle cx="263" cy="873" r="0.8" opacity="0.6"/>
    <circle cx="334" cy="827" r="0.7" opacity="0.5"/>
    <circle cx="429" cy="878" r="0.9" opacity="0.7"/>
    <circle cx="538" cy="834" r="0.8" opacity="0.6"/>
    <circle cx="629" cy="867" r="0.7" opacity="0.5"/>
    <circle cx="743" cy="823" r="0.9" opacity="0.7"/>
    <circle cx="847" cy="879" r="0.8" opacity="0.6"/>
    <circle cx="932" cy="836" r="0.7" opacity="0.5"/>
    
    <!-- Last section of tiny stars -->
    <circle cx="63" cy="926" r="0.9" opacity="0.7"/>
    <circle cx="152" cy="967" r="0.8" opacity="0.6"/>
    <circle cx="237" cy="932" r="0.7" opacity="0.5"/>
    <circle cx="358" cy="973" r="0.9" opacity="0.7"/>
    <circle cx="439" cy="923" r="0.8" opacity="0.6"/>
    <circle cx="523" cy="964" r="0.7" opacity="0.5"/>
    <circle cx="647" cy="928" r="0.9" opacity="0.7"/>
    <circle cx="738" cy="969" r="0.8" opacity="0.6"/>
    <circle cx="842" cy="927" r="0.7" opacity="0.5"/>
    <circle cx="956" cy="961" r="0.9" opacity="0.7"/>
  </g>
  
  <!-- Small stars - random distribution -->
  <g fill="#FFFFFF">
    <circle cx="84" cy="53" r="1.2" opacity="0.8"/>
    <circle cx="173" cy="124" r="1.3" opacity="0.7"/>
    <circle cx="289" cy="67" r="1.1" opacity="0.9"/>
    <circle cx="387" cy="138" r="1.4" opacity="0.8"/>
    <circle cx="456" cy="89" r="1.2" opacity="0.7"/>
    <circle cx="582" cy="142" r="1.3" opacity="0.9"/>
    <circle cx="673" cy="76" r="1.1" opacity="0.8"/>
    <circle cx="782" cy="129" r="1.4" opacity="0.7"/>
    <circle cx="896" cy="57" r="1.2" opacity="0.9"/>
    
    <circle cx="52" cy="187" r="1.3" opacity="0.8"/>
    <circle cx="178" cy="243" r="1.1" opacity="0.7"/>
    <circle cx="274" cy="198" r="1.4" opacity="0.9"/>
    <circle cx="342" cy="276" r="1.2" opacity="0.8"/>
    <circle cx="472" cy="231" r="1.3" opacity="0.7"/>
    <circle cx="547" cy="284" r="1.1" opacity="0.9"/>
    <circle cx="681" cy="217" r="1.4" opacity="0.8"/>
    <circle cx="762" cy="263" r="1.2" opacity="0.7"/>
    <circle cx="876" cy="219" r="1.3" opacity="0.9"/>
    
    <circle cx="67" cy="342" r="1.1" opacity="0.8"/>
    <circle cx="154" cy="389" r="1.4" opacity="0.7"/>
    <circle cx="273" cy="327" r="1.2" opacity="0.9"/>
    <circle cx="367" cy="423" r="1.3" opacity="0.8"/>
    <circle cx="487" cy="376" r="1.1" opacity="0.7"/>
    <circle cx="531" cy="412" r="1.4" opacity="0.9"/>
    <circle cx="673" cy="387" r="1.2" opacity="0.8"/>
    <circle cx="736" cy="342" r="1.3" opacity="0.7"/>
    <circle cx="867" cy="387" r="1.1" opacity="0.9"/>
    
    <circle cx="76" cy="456" r="1.4" opacity="0.8"/>
    <circle cx="169" cy="512" r="1.2" opacity="0.7"/>
    <circle cx="243" cy="467" r="1.3" opacity="0.9"/>
    <circle cx="386" cy="513" r="1.1" opacity="0.8"/>
    <circle cx="451" cy="487" r="1.4" opacity="0.7"/>
    <circle cx="574" cy="524" r="1.2" opacity="0.9"/>
    <circle cx="642" cy="478" r="1.3" opacity="0.8"/>
    <circle cx="768" cy="532" r="1.1" opacity="0.7"/>
    <circle cx="823" cy="497" r="1.4" opacity="0.9"/>
    
    <circle cx="51" cy="587" r="1.2" opacity="0.8"/>
    <circle cx="167" cy="643" r="1.3" opacity="0.7"/>
    <circle cx="282" cy="592" r="1.1" opacity="0.9"/>
    <circle cx="378" cy="631" r="1.4" opacity="0.8"/>
    <circle cx="452" cy="587" r="1.2" opacity="0.7"/>
    <circle cx="573" cy="624" r="1.3" opacity="0.9"/>
    <circle cx="657" cy="589" r="1.1" opacity="0.8"/>
    <circle cx="787" cy="642" r="1.4" opacity="0.7"/>
    <circle cx="863" cy="578" r="1.2" opacity="0.9"/>
    
    <circle cx="73" cy="723" r="1.3" opacity="0.8"/>
    <circle cx="189" cy="687" r="1.1" opacity="0.7"/>
    <circle cx="245" cy="742" r="1.4" opacity="0.9"/>
    <circle cx="348" cy="698" r="1.2" opacity="0.8"/>
    <circle cx="478" cy="736" r="1.3" opacity="0.7"/>
    <circle cx="567" cy="687" r="1.1" opacity="0.9"/>
    <circle cx="673" cy="724" r="1.4" opacity="0.8"/>
    <circle cx="764" cy="698" r="1.2" opacity="0.7"/>
    <circle cx="876" cy="731" r="1.3" opacity="0.9"/>
    
    <circle cx="63" cy="832" r="1.1" opacity="0.8"/>
    <circle cx="174" cy="867" r="1.4" opacity="0.7"/>
    <circle cx="287" cy="823" r="1.2" opacity="0.9"/>
    <circle cx="368" cy="873" r="1.3" opacity="0.8"/>
    <circle cx="476" cy="827" r="1.1" opacity="0.7"/>
    <circle cx="562" cy="876" r="1.4" opacity="0.9"/>
    <circle cx="684" cy="834" r="1.2" opacity="0.8"/>
    <circle cx="767" cy="871" r="1.3" opacity="0.7"/>
    <circle cx="856" cy="823" r="1.1" opacity="0.9"/>
    
    <circle cx="87" cy="932" r="1.4" opacity="0.8"/>
    <circle cx="194" cy="967" r="1.2" opacity="0.7"/>
    <circle cx="264" cy="923" r="1.3" opacity="0.9"/>
    <circle cx="383" cy="954" r="1.1" opacity="0.8"/>
    <circle cx="462" cy="912" r="1.4" opacity="0.7"/>
    <circle cx="586" cy="946" r="1.2" opacity="0.9"/>
    <circle cx="673" cy="913" r="1.3" opacity="0.8"/>
    <circle cx="792" cy="958" r="1.1" opacity="0.7"/>
    <circle cx="879" cy="926" r="1.4" opacity="0.9"/>
  </g>
  
  <!-- Medium stars - completely random placement, more sparse -->
  <g fill="#FFFFFF">
    <circle cx="123" cy="78" r="1.8" opacity="0.9"/>
    <circle cx="251" cy="156" r="1.7" opacity="0.8"/>
    <circle cx="387" cy="89" r="1.9" opacity="1.0"/>
    <circle cx="542" cy="132" r="1.6" opacity="0.9"/>
    <circle cx="698" cy="64" r="1.7" opacity="0.8"/>
    <circle cx="843" cy="112" r="1.8" opacity="1.0"/>
    
    <circle cx="76" cy="234" r="1.7" opacity="0.9"/>
    <circle cx="197" cy="298" r="1.8" opacity="0.8"/>
    <circle cx="342" cy="213" r="1.6" opacity="1.0"/>
    <circle cx="489" cy="267" r="1.9" opacity="0.9"/>
    <circle cx="623" cy="185" r="1.7" opacity="0.8"/>
    <circle cx="786" cy="246" r="1.8" opacity="1.0"/>
    
    <circle cx="132" cy="367" r="1.6" opacity="0.9"/>
    <circle cx="278" cy="412" r="1.9" opacity="0.8"/>
    <circle cx="426" cy="356" r="1.7" opacity="1.0"/>
    <circle cx="563" cy="423" r="1.8" opacity="0.9"/>
    <circle cx="721" cy="378" r="1.6" opacity="0.8"/>
    <circle cx="854" cy="432" r="1.9" opacity="1.0"/>
    
    <circle cx="89" cy="534" r="1.7" opacity="0.9"/>
    <circle cx="243" cy="478" r="1.8" opacity="0.8"/>
    <circle cx="412" cy="546" r="1.6" opacity="1.0"/>
    <circle cx="578" cy="492" r="1.9" opacity="0.9"/>
    <circle cx="723" cy="536" r="1.7" opacity="0.8"/>
    <circle cx="867" cy="484" r="1.8" opacity="1.0"/>
    
    <circle cx="154" cy="613" r="1.6" opacity="0.9"/>
    <circle cx="298" cy="567" r="1.9" opacity="0.8"/>
    <circle cx="457" cy="642" r="1.7" opacity="1.0"/>
    <circle cx="612" cy="578" r="1.8" opacity="0.9"/>
    <circle cx="743" cy="627" r="1.6" opacity="0.8"/>
    <circle cx="892" cy="586" r="1.9" opacity="1.0"/>
    
    <circle cx="112" cy="734" r="1.7" opacity="0.9"/>
    <circle cx="287" cy="678" r="1.8" opacity="0.8"/>
    <circle cx="423" cy="753" r="1.6" opacity="1.0"/>
    <circle cx="567" cy="697" r="1.9" opacity="0.9"/>
    <circle cx="691" cy="742" r="1.7" opacity="0.8"/>
    <circle cx="842" cy="684" r="1.8" opacity="1.0"/>
    
    <circle cx="134" cy="824" r="1.6" opacity="0.9"/>
    <circle cx="256" cy="876" r="1.9" opacity="0.8"/>
    <circle cx="398" cy="813" r="1.7" opacity="1.0"/>
    <circle cx="534" cy="867" r="1.8" opacity="0.9"/>
    <circle cx="687" cy="821" r="1.6" opacity="0.8"/>
    <circle cx="823" cy="874" r="1.9" opacity="1.0"/>
    
    <circle cx="165" cy="923" r="1.7" opacity="0.9"/>
    <circle cx="312" cy="946" r="1.8" opacity="0.8"/>
    <circle cx="456" cy="914" r="1.6" opacity="1.0"/>
    <circle cx="596" cy="957" r="1.9" opacity="0.9"/>
    <circle cx="734" cy="912" r="1.7" opacity="0.8"/>
    <circle cx="873" cy="948" r="1.8" opacity="1.0"/>
  </g>
  
  <!-- Large stars - very sparse, completely random placement -->
  <g fill="#FFFFFF">
    <circle cx="103" cy="145" r="2.4" opacity="1.0"/>
    <circle cx="376" cy="87" r="2.6" opacity="1.0"/>
    <circle cx="674" cy="123" r="2.5" opacity="1.0"/>
    <circle cx="923" cy="96" r="2.3" opacity="1.0"/>
    
    <circle cx="213" cy="273" r="2.5" opacity="1.0"/>
    <circle cx="532" cy="198" r="2.3" opacity="1.0"/>
    <circle cx="804" cy="258" r="2.6" opacity="1.0"/>
    
    <circle cx="112" cy="413" r="2.4" opacity="1.0"/>
    <circle cx="453" cy="342" r="2.6" opacity="1.0"/>
    <circle cx="732" cy="425" r="2.5" opacity="1.0"/>
    
    <circle cx="287" cy="574" r="2.3" opacity="1.0"/>
    <circle cx="564" cy="489" r="2.5" opacity="1.0"/>
    <circle cx="843" cy="532" r="2.4" opacity="1.0"/>
    
    <circle cx="186" cy="687" r="2.6" opacity="1.0"/>
    <circle cx="493" cy="643" r="2.3" opacity="1.0"/>
    <circle cx="734" cy="698" r="2.5" opacity="1.0"/>
    
    <circle cx="267" cy="824" r="2.4" opacity="1.0"/>
    <circle cx="578" cy="756" r="2.6" opacity="1.0"/>
    <circle cx="876" cy="812" r="2.5" opacity="1.0"/>
    
    <circle cx="147" cy="923" r="2.3" opacity="1.0"/>
    <circle cx="423" cy="876" r="2.5" opacity="1.0"/>
    <circle cx="764" cy="942" r="2.4" opacity="1.0"/>
  </g>
  
  <!-- Bluish tint for some stars -->
  <g fill="#AABBFF">
    <circle cx="214" cy="42" r="1.5" opacity="0.9"/>
    <circle cx="478" cy="134" r="1.6" opacity="0.8"/>
    <circle cx="743" cy="76" r="1.4" opacity="0.9"/>
    
    <circle cx="132" cy="256" r="1.6" opacity="0.8"/>
    <circle cx="389" cy="187" r="1.5" opacity="0.9"/>
    <circle cx="654" cy="267" r="1.4" opacity="0.8"/>
    
    <circle cx="243" cy="376" r="1.5" opacity="0.9"/>
    <circle cx="514" cy="321" r="1.6" opacity="0.8"/>
    <circle cx="786" cy="387" r="1.4" opacity="0.9"/>
    
    <circle cx="156" cy="478" r="1.6" opacity="0.8"/>
    <circle cx="427" cy="432" r="1.5" opacity="0.9"/>
    <circle cx="698" cy="513" r="1.4" opacity="0.8"/>
    
    <circle cx="231" cy="623" r="1.5" opacity="0.9"/>
    <circle cx="498" cy="576" r="1.6" opacity="0.8"/>
    <circle cx="764" cy="643" r="1.4" opacity="0.9"/>
    
    <circle cx="147" cy="734" r="1.6" opacity="0.8"/>
    <circle cx="423" cy="678" r="1.5" opacity="0.9"/>
    <circle cx="723" cy="765" r="1.4" opacity="0.8"/>
    
    <circle cx="265" cy="867" r="1.5" opacity="0.9"/>
    <circle cx="534" cy="823" r="1.6" opacity="0.8"/>
    <circle cx="812" cy="876" r="1.4" opacity="0.9"/>
    
    <circle cx="189" cy="932" r="1.6" opacity="0.8"/>
    <circle cx="467" cy="896" r="1.5" opacity="0.9"/>
    <circle cx="736" cy="937" r="1.4" opacity="0.8"/>
  </g>
  
  <!-- Slight yellowish/reddish tint for some stars -->
  <g fill="#FFE0BB">
    <circle cx="167" cy="87" r="1.5" opacity="0.9"/>
    <circle cx="432" cy="42" r="1.4" opacity="0.8"/>
    <circle cx="687" cy="123" r="1.6" opacity="0.9"/>
    
    <circle cx="265" cy="213" r="1.4" opacity="0.8"/>
    <circle cx="532" cy="164" r="1.5" opacity="0.9"/>
    <circle cx="823" cy="234" r="1.6" opacity="0.8"/>
    
    <circle cx="198" cy="342" r="1.5" opacity="0.9"/>
    <circle cx="465" cy="376" r="1.4" opacity="0.8"/>
    <circle cx="732" cy="321" r="1.6" opacity="0.9"/>
    
    <circle cx="298" cy="456" r="1.4" opacity="0.8"/>
    <circle cx="576" cy="432" r="1.5" opacity="0.9"/>
    <circle cx="843" cy="478" r="1.6" opacity="0.8"/>
    
    <circle cx="176" cy="587" r="1.5" opacity="0.9"/>
    <circle cx="443" cy="532" r="1.4" opacity="0.8"/>
    <circle cx="698" cy="576" r="1.6" opacity="0.9"/>
    
    <circle cx="276" cy="678" r="1.4" opacity="0.8"/>
    <circle cx="534" cy="643" r="1.5" opacity="0.9"/>
    <circle cx="854" cy="734" r="1.6" opacity="0.8"/>
    
    <circle cx="165" cy="813" r="1.5" opacity="0.9"/>
    <circle cx="476" cy="867" r="1.4" opacity="0.8"/>
    <circle cx="765" cy="823" r="1.6" opacity="0.9"/>
    
    <circle cx="243" cy="896" r="1.4" opacity="0.8"/>
    <circle cx="586" cy="932" r="1.5" opacity="0.9"/>
    <circle cx="823" cy="915" r="1.6" opacity="0.8"/>
  </g>
  
  <!-- Add a few twinkling stars (animated) -->
  <g>
    <circle cx="254" cy="136" r="2.2" opacity="1">
      <animate attributeName="opacity" values="1;0.3;1" dur="3s" repeatCount="indefinite" />
    </circle>
    <circle cx="623" cy="287" r="2.3" opacity="1">
      <animate attributeName="opacity" values="1;0.4;1" dur="4s" repeatCount="indefinite" />
    </circle>
    <circle cx="412" cy="534" r="2.1" opacity="1">
      <animate attributeName="opacity" values="1;0.5;1" dur="5s" repeatCount="indefinite" />
    </circle>
    <circle cx="786" cy="683" r="2.2" opacity="1">
      <animate attributeName="opacity" values="1;0.3;1" dur="3.5s" repeatCount="indefinite" />
    </circle>
    <circle cx="321" cy="814" r="2.3" opacity="1">
      <animate attributeName="opacity" values="1;0.4;1" dur="4.5s" repeatCount="indefinite" />
    </circle>
  </g>
</svg>